<svg xmlns="http://www.w3.org/2000/svg" width="24" height="24"><path fill="#21272E" d="m12.882 22.681 8.05-4.573c.953-.544 1.476-1.097 1.476-2.584V7.403c0-1.138-.451-1.784-1.292-2.266l-7.25-4.122c-1.261-.728-2.491-.718-3.732 0l-7.25 4.122c-.84.482-1.292 1.128-1.292 2.266v8.12c0 1.488.523 2.041 1.477 2.585l8.05 4.573c.594.339 1.148.349 1.763 0zM16.819 8.07 8.975 3.64l1.887-1.076c.78-.44 1.476-.451 2.276 0l6.675 3.814L16.82 8.07zM12 10.797l-7.813-4.42 3.065-1.753 7.814 4.44L12 10.797zm-.861 9.915-7.106-4.04c-.585-.328-.78-.646-.78-1.2V7.824l7.886 4.502v8.387zm1.722 0v-8.387l7.886-4.502v7.65c0 .553-.195.871-.78 1.2l-7.106 4.04z"/></svg>