<svg height="164" width="196" xmlns="http://www.w3.org/2000/svg"><mask id="a" fill="#fff"><path d="M.401 28.9c0 15.95 12.93 28.88 28.88 28.88S58.163 44.85 58.163 28.9 45.232.019 29.282.019.4 12.949.4 28.899" fill-rule="evenodd"/></mask><mask id="b" fill="#fff"><path d="M.208.079H37.74v37.53H.208z" fill-rule="evenodd"/></mask><mask id="c" fill="#fff"><path d="M.411 9.57a9.367 9.367 0 0 0 18.734 0 9.368 9.368 0 0 0-18.734 0" fill-rule="evenodd"/></mask><g fill="none" fill-rule="evenodd"><path d="M69.635 29.701c14.63-.054 29.275 5.499 40.436 16.66a57.134 57.134 0 0 1 7.48 9.213" stroke="#22272d" stroke-width=".85"/><path d="m113.08 55.174.195-.828 4.078.967.667-4.138.84.136-.814 5.04z" fill="#22272d"/><path d="M99.657 135.294c-8.682 5.37-18.917 8.469-29.875 8.469-31.415 0-56.882-25.467-56.882-56.882 0-20.973 11.351-39.295 28.246-49.158" stroke="#22272d" stroke-width=".85"/><g fill="#22272d"><path d="m40.551 42.175-.818-.232 1.146-4.03-4.105-.85.174-.833 4.998 1.036z"/><path d="M69.781 143.338c-31.13 0-56.456-25.326-56.456-56.457 0-19.75 10.48-38.22 27.392-48.4l-.985 3.463.819.232 1.395-4.91-4.999-1.035-.173.833 3.46.716c-17.14 10.338-27.758 29.072-27.758 49.1 0 31.599 25.707 57.306 57.305 57.306a57.176 57.176 0 0 0 30.1-8.531l-.448-.723a56.326 56.326 0 0 1-29.652 8.405m42.113-17.597c9.802-10.614 15.194-24.38 15.194-38.86a57.229 57.229 0 0 0-14.413-38.002l-.636.564a56.38 56.38 0 0 1 14.199 37.439c0 14.28-5.323 27.856-15 38.318l-.01-3.6-.851.004.015 5.105 5.09-.387-.063-.848z"/></g><path d="M.401 28.9c0 15.95 12.93 28.88 28.88 28.88S58.163 44.85 58.163 28.9 45.232.019 29.282.019.4 12.949.4 28.899" fill="#f43939" mask="url(#a)" transform="translate(40.5 57.981)"/><path d="M77.023 75.861a7.24 7.24 0 1 0-14.482 0 7.24 7.24 0 0 0 14.482 0" fill="#fff"/><path d="M77.023 75.861a7.24 7.24 0 1 0-14.482 0 7.24 7.24 0 0 0 14.482 0z" stroke="#fff" stroke-linecap="round" stroke-width=".715"/><path d="M85.229 102.41c0-8.53-6.916-15.447-15.448-15.447-8.53 0-15.446 6.917-15.446 15.448z" fill="#fff"/><path d="M85.229 102.41c0-8.53-6.916-15.447-15.448-15.447-8.53 0-15.446 6.917-15.446 15.448z" stroke="#fff" stroke-linecap="round" stroke-width=".762"/><path d="M37.74 18.844C37.74 8.48 29.338.08 18.974.08 8.61.079.208 8.479.208 18.844c0 10.364 8.402 18.766 18.766 18.766 10.364 0 18.766-8.402 18.766-18.766" fill="#69b0fe" mask="url(#b)" transform="translate(102 41.981)"/><path d="M.411 9.57a9.367 9.367 0 0 0 18.734 0 9.368 9.368 0 0 0-18.734 0" fill="#f43939" mask="url(#c)" transform="translate(87.5 125.981)"/><path d="M68.52 46.5c-3.3 0-6-2.7-6-6v-2c0-3.3 2.7-6 6-6s6 2.7 6 6v2c0 3.3-2.7 6-6 6" fill="#22272d"/><path d="M68.52 49a2.257 2.257 0 0 1-2.25-2.25v-1c0-1.237 1.013-2.25 2.25-2.25s2.25 1.013 2.25 2.25v1A2.257 2.257 0 0 1 68.52 49" fill="#22272d"/><path d="M80.77 26.75c0 6.766-5.484 12.25-12.25 12.25s-12.25-5.484-12.25-12.25S61.755 14.5 68.52 14.5s12.25 5.485 12.25 12.25" fill="#d9e0e7"/><g fill="#fff"><path d="m62.849 29.925 4.171 7.225 4.172-7.225zm4.171 8.925-5.644-9.775h11.288z"/><path d="m65.849 29.925 4.171 7.225 4.172-7.225zm4.171 8.925-5.644-9.775h11.288z"/></g></g></svg>