<svg height="28.836" viewBox="13.218 10.082 93.563 28.836" width="93.563" xmlns="http://www.w3.org/2000/svg" xmlns:xlink="http://www.w3.org/1999/xlink"><linearGradient id="a"><stop offset="0" stop-color="#ff254c"/><stop offset="1" stop-color="#ff2b44"/></linearGradient><linearGradient id="b" gradientTransform="matrix(2.213 0 0 -2.1351 786.92 761.978)" gradientUnits="userSpaceOnUse" x1="-328.554" x2="-327.563" xlink:href="#a" y1="349.998" y2="349.998"/><linearGradient id="c" gradientTransform="matrix(2.241 0 0 -2.189 829.453 790.242)" gradientUnits="userSpaceOnUse" x1="-329.946" x2="-328.963" xlink:href="#a" y1="354.288" y2="354.288"/><linearGradient id="d" gradientTransform="matrix(15.1402 0 0 -11.162 6614.833 5371.427)" gradientUnits="userSpaceOnUse" x1="-435.785" x2="-435.785" xlink:href="#a" y1="480.219" y2="481.219"/><linearGradient id="e" gradientTransform="matrix(1.858 0 0 -10.998 611.285 5304.894)" gradientUnits="userSpaceOnUse" x1="-319.869" x2="-319.869" xlink:href="#a" y1="479.721" y2="480.721"/><linearGradient id="f" gradientTransform="matrix(3.9567 0 0 -2.107 1559.872 725.388)" gradientUnits="userSpaceOnUse" x1="-389.953" x2="-389.953" xlink:href="#a" y1="337.183" y2="338.178"/><linearGradient id="g" gradientTransform="matrix(11.013 0 0 -11.053 4738.102 5323.394)" gradientUnits="userSpaceOnUse" x1="-429.708" x2="-429.708" xlink:href="#a" y1="479.889" y2="480.89"/><linearGradient id="h" gradientTransform="matrix(10.22 0 0 -9.958 4383.207 4768.033)" gradientUnits="userSpaceOnUse" x1="-427.978" x2="-427.978" xlink:href="#a" y1="476.195" y2="477.194"/><linearGradient id="i" gradientTransform="matrix(11.0135 0 0 -11.1134 4760.794 5354.475)" gradientUnits="userSpaceOnUse" x1="-429.709" x2="-429.709" xlink:href="#a" y1="480.072" y2="481.073"/><linearGradient id="j" gradientTransform="matrix(10.22 0 0 -9.959 4398.535 4768.523)" gradientUnits="userSpaceOnUse" x1="-427.979" x2="-427.979" xlink:href="#a" y1="476.197" y2="477.196"/><linearGradient id="k" gradientTransform="matrix(2 0 0 -2 678.885 667.744)" gradientUnits="userSpaceOnUse" x1="-329.25" x2="-329.25" xlink:href="#a" y1="327.752" y2="328.756"/><linearGradient id="l" gradientTransform="matrix(2 0 0 -2 671.89 667.744)" gradientUnits="userSpaceOnUse" x1="-329.25" x2="-329.25" xlink:href="#a" y1="327.752" y2="328.756"/><linearGradient id="m" gradientTransform="matrix(4.564 0 0 -6.895 1819.93 3184.103)" gradientUnits="userSpaceOnUse" x1="-398.209" x2="-398.209" xlink:href="#a" y1="459.621" y2="460.621"/><path d="M52.65 19.876H51.2v-1.75h1.503v-3.174h2.104v3.173h2.678v1.751h-2.678v4.979c0 2.217 1.558 2.518 2.377 2.518.164 0 .274 0 .52-.055v1.888c-.164.026-.41.054-.738.054-1.421 0-4.263-.465-4.263-4.185v-5.199h-.055z" fill="#21272e"/><path d="M60.902 13.639h.054c.603 0 1.065.492 1.065 1.067 0 .602-.492 1.094-1.092 1.067h-.056a1.086 1.086 0 0 1-1.065-1.067c.028-.575.493-1.067 1.094-1.067z" fill="url(#b)"/><path d="M59.891 18.016h2.13v11.162h-2.13zm5.41 0h2.077v1.532c0 .465-.055.848-.055.848h.055c.41-.957 1.776-2.626 4.235-2.626 2.623 0 3.826 1.422 3.826 4.268v7.14h-2.131v-6.675c0-1.56-.302-2.79-2.105-2.79-2.186 0-3.717 1.805-3.717 4.103v5.362h-2.131V18.016zm11.914 0h2.268l2.705 7.55c.192.631.41 1.533.41 1.533h.055s.164-.904.383-1.533l2.706-7.55h2.239l-4.125 11.162h-2.461z" fill="#21272e"/><path d="M91.124 13.611h.054c.602 0 1.094.493 1.094 1.095s-.493 1.094-1.094 1.094h-.054a1.097 1.097 0 0 1-1.093-1.094c0-.602.492-1.095 1.093-1.095z" fill="url(#c)"/><path d="M90.085 18.016h2.131v11.162h-2.131zm10.685-.246c3.334 0 6.012 2.462 6.012 5.827 0 3.393-2.678 5.881-5.984 5.881-3.334 0-6.012-2.461-6.012-5.881-.001-3.392 2.677-5.827 5.984-5.827zm.027 9.822c2.104 0 3.826-1.67 3.826-4.022 0-2.326-1.75-3.967-3.826-3.967-2.104 0-3.824 1.641-3.824 3.967 0 2.353 1.72 4.022 3.824 4.022z" fill="#21272e"/><g transform="translate(13 10)"><path d="M10.302 11.244c.519 0 .929-.41.929-.93V7.66c0-3.146 2.568-5.718 5.71-5.718 3.143 0 5.74 2.572 5.74 5.718v2.627c0 .52.41.93.928.93.52 0 .93-.41.93-.93V7.66c0-4.185-3.389-7.578-7.57-7.578C12.79.082 9.4 3.475 9.4 7.66v2.627c-.027.52.41.957.902.957z" fill="url(#d)"/><path d="M16.97 17.92c-.52 0-.93.41-.93.93v9.139c0 .52.41.93.93.93.518 0 .928-.41.928-.93V18.85c0-.52-.41-.93-.929-.93z" fill="url(#e)"/><path d="M18.335 12.831h-2.732c-.41 0-.738.438-.574.82a2.095 2.095 0 0 0 1.94 1.287c.875 0 1.612-.52 1.94-1.286.137-.383-.164-.82-.574-.821z" fill="url(#f)"/><path d="M7.077 19.178a4.154 4.154 0 0 0 4.154-4.154v-.004c0-.52-.41-.93-.93-.93a.922.922 0 0 0-.928.93 2.31 2.31 0 0 1-2.296 2.299 2.31 2.31 0 0 1-2.295-2.299v-3.255a3.635 3.635 0 0 0-3.631-3.639h-.003c-.52 0-.93.41-.93.93s.41.93.93.93c.983 0 1.776.794 1.776 1.78v3.254a4.154 4.154 0 0 0 4.15 4.158z" fill="url(#g)"/><path d="M13.39 16.143c-.52 0-.93.409-.93.93v3.912a3.233 3.233 0 0 1-3.224 3.228 3.233 3.233 0 0 1-3.224-3.228c0-.521-.41-.93-.93-.93a.921.921 0 0 0-.929.93c0 2.817 2.296 5.115 5.11 5.115 2.815 0 5.11-2.298 5.11-5.115v-3.912c-.054-.521-.464-.93-.983-.93z" fill="url(#h)"/><path d="M32.763 8.125a3.634 3.634 0 0 0-3.634 3.636v3.258a2.31 2.31 0 0 1-2.295 2.299 2.31 2.31 0 0 1-2.296-2.299c0-.52-.41-.93-.929-.93s-.929.41-.929.93a4.154 4.154 0 1 0 8.307 0v-3.255c0-.985.793-1.778 1.776-1.778.52 0 .93-.41.93-.93s-.41-.93-.93-.931z" fill="url(#i)"/><path d="M28.72 20.025c-.52 0-.93.41-.93.931a3.232 3.232 0 0 1-3.224 3.229 3.232 3.232 0 0 1-3.225-3.229v-3.913c0-.521-.41-.93-.929-.93s-.929.409-.929.93v3.913c0 2.818 2.295 5.116 5.11 5.116s5.11-2.298 5.11-5.116c-.055-.493-.465-.93-.984-.93z" fill="url(#j)"/><circle cx="20.385" cy="11.244" fill="url(#k)" r="1"/><circle cx="13.39" cy="11.244" fill="url(#l)" r="1"/><path d="M4.782 15.02v-3.255a3.635 3.635 0 0 0-3.631-3.639h-.003c-.52 0-.93.41-.93.93s.41.93.93.93c.983 0 1.776.794 1.776 1.78v3.254" fill="url(#m)"/></g></svg>