<svg height="164" width="196" xmlns="http://www.w3.org/2000/svg"><mask id="a" fill="#fff"><path d="M0 .228h83.465v26.933H0z" fill-rule="evenodd"/></mask><mask id="b" fill="#fff"><path d="M.303.022h58.343v80.82H.303z" fill-rule="evenodd"/></mask><mask id="c" fill="#fff"><path d="m18.132 4.327-.024 29.736c-.002 1.562-1.888 2.346-2.995 1.244L7.78 28.004a4.273 4.273 0 0 0-6.044 0 4.278 4.278 0 0 0 0 6.047l.533.535c6.097 6.099 11.098 13.157 15.28 20.7a18.327 18.327 0 0 0 2.978 3.982 18.226 18.226 0 0 0 13.026 5.455c10.103 0 18.294-8.194 18.294-18.303 0-.41-.019-.817-.045-1.22h.045V28.123a4.715 4.715 0 0 0-4.714-4.717 3.834 3.834 0 0 0-3.337 1.948.012.012 0 0 1-.022-.006v-1.313c0-2.36-1.846-4.392-4.205-4.429a4.275 4.275 0 0 0-4.343 4.276v-2.697c0-2.361-1.845-4.392-4.205-4.429a4.274 4.274 0 0 0-4.342 4.275V4.327a4.275 4.275 0 1 0-8.547 0" fill-rule="evenodd"/></mask><g fill="none" fill-rule="evenodd"><path d="M77.58 27.16H5.884A5.886 5.886 0 0 1 0 21.274V6.116A5.886 5.886 0 0 1 5.884.228H77.58a5.886 5.886 0 0 1 5.885 5.888v15.157a5.886 5.886 0 0 1-5.885 5.888" fill="#69b0fe" mask="url(#a)" transform="translate(23 23.274)"/><path d="M37.746 29.582c-4.226 0-7.665 3.44-7.665 7.669 0 4.228 3.439 7.669 7.665 7.669s7.665-3.44 7.665-7.67c0-4.228-3.439-7.668-7.665-7.668m0 16.342c-4.78 0-8.669-3.89-8.669-8.673 0-4.783 3.89-8.674 8.67-8.674 4.78 0 8.668 3.891 8.668 8.674 0 4.782-3.889 8.673-8.669 8.673" fill="#fff"/><g fill="#22272d"><path d="M37.595 41.233a.5.5 0 0 1-.344-.136l-4.99-4.69a.502.502 0 1 1 .687-.732l4.628 4.35L47.82 29.338a.502.502 0 0 1 .724.694L37.957 41.078a.503.503 0 0 1-.362.155"/><path d="M58.647 77.73V3.134A3.113 3.113 0 0 0 55.535.022H3.415A3.113 3.113 0 0 0 .302 3.135V77.73a3.112 3.112 0 0 0 3.111 3.114h52.121a3.112 3.112 0 0 0 3.112-3.114" mask="url(#b)" transform="translate(98.28 59.929)"/><path d="M40.806 69.61a3.76 3.76 0 0 0-2.667 1.104 3.78 3.78 0 0 0 0 5.337l.534.534c5.7 5.703 10.87 12.706 15.363 20.813a17.853 17.853 0 0 0 2.897 3.872 17.654 17.654 0 0 0 12.668 5.306c9.811 0 17.792-7.986 17.792-17.802 0-.354-.014-.731-.043-1.187a.505.505 0 0 1 .043-.24v-16.87a4.218 4.218 0 0 0-4.211-4.214 3.339 3.339 0 0 0-2.9 1.693.525.525 0 0 1-.578.244.523.523 0 0 1-.383-.497V66.39c0-2.134-1.665-3.896-3.712-3.927a3.736 3.736 0 0 0-2.706 1.084 3.748 3.748 0 0 0-1.126 2.689.502.502 0 1 1-1.004 0v-2.697c0-2.134-1.664-3.895-3.711-3.927a3.72 3.72 0 0 0-2.707 1.084 3.746 3.746 0 0 0-1.125 2.69.502.502 0 0 1-1.004 0V46.68c0-2.08-1.692-3.773-3.772-3.773s-3.772 1.692-3.772 3.773l-.024 29.737c0 .93-.534 1.728-1.392 2.084-.858.356-1.8.17-2.458-.485l-7.334-7.302a3.76 3.76 0 0 0-2.668-1.104m28.795 37.969a18.65 18.65 0 0 1-13.384-5.605 18.89 18.89 0 0 1-3.058-4.09c-4.449-8.025-9.561-14.953-15.196-20.59l-.534-.534a4.786 4.786 0 0 1 0-6.757 4.78 4.78 0 0 1 6.755 0l7.332 7.301c.437.435.992.426 1.365.27.374-.155.773-.54.773-1.158l.024-29.736a4.782 4.782 0 0 1 4.776-4.778 4.783 4.783 0 0 1 4.776 4.778v13.773a4.75 4.75 0 0 1 3.848-1.846c2.517.04 4.578 2.128 4.694 4.702a4.85 4.85 0 0 1 .427-.48 4.735 4.735 0 0 1 3.426-1.371c2.574.04 4.671 2.223 4.7 4.877a4.339 4.339 0 0 1 2.857-1.077 5.223 5.223 0 0 1 5.215 5.218v17.077a.505.505 0 0 1-.033.18c.022.385.033.72.033 1.04 0 10.37-8.432 18.806-18.796 18.806"/></g><path d="m18.132 4.327-.024 29.736c-.002 1.562-1.888 2.346-2.995 1.244L7.78 28.004a4.273 4.273 0 0 0-6.044 0 4.278 4.278 0 0 0 0 6.047l.533.535c6.097 6.099 11.098 13.157 15.28 20.7a18.327 18.327 0 0 0 2.978 3.982 18.226 18.226 0 0 0 13.026 5.455c10.103 0 18.294-8.194 18.294-18.303 0-.41-.019-.817-.045-1.22h.045V28.123a4.715 4.715 0 0 0-4.714-4.717 3.834 3.834 0 0 0-3.337 1.948.012.012 0 0 1-.022-.006v-1.313c0-2.36-1.846-4.392-4.205-4.429a4.275 4.275 0 0 0-4.343 4.276v-2.697c0-2.361-1.845-4.392-4.205-4.429a4.274 4.274 0 0 0-4.342 4.275V4.327a4.275 4.275 0 1 0-8.547 0" fill="#f43939" mask="url(#c)" transform="translate(40.566 39.844)"/><path d="M104.431 132.9h49.66V64.107h-49.66z" fill="#d9e0e7"/><path d="M102.926 131.393h49.66V62.6h-49.66z" fill="#fff"/><path d="M137.846 54.908h-5.887a4.016 4.016 0 1 0-8.03 0h-6.264a4.477 4.477 0 0 0-4.463 4.466v3.754a2.833 2.833 0 0 0 2.824 2.827h23.46a2.834 2.834 0 0 0 2.824-2.827v-3.754a4.478 4.478 0 0 0-4.464-4.466m5.167 25.646h-30.435a4.035 4.035 0 0 1-4.034-4.036 4.035 4.035 0 0 1 4.034-4.036h30.435a4.035 4.035 0 0 1 4.034 4.036 4.035 4.035 0 0 1-4.034 4.036" fill="#d9e0e7"/><path d="M115.429 76.5a2.51 2.51 0 1 0-2.51 2.51 2.51 2.51 0 0 0 2.51-2.51z" stroke="#fff" stroke-width=".85"/><path d="M143.013 94.112h-30.435a4.035 4.035 0 0 1-4.034-4.036 4.035 4.035 0 0 1 4.034-4.036h30.435a4.035 4.035 0 0 1 4.034 4.036 4.035 4.035 0 0 1-4.034 4.036" fill="#d9e0e7"/><path d="M115.429 90.057a2.51 2.51 0 1 0-2.51 2.51 2.51 2.51 0 0 0 2.51-2.51z" stroke="#fff" stroke-width=".85"/><path d="M143.013 107.67h-30.435a4.035 4.035 0 0 1-4.034-4.037 4.035 4.035 0 0 1 4.034-4.036h30.435a4.035 4.035 0 0 1 4.034 4.036 4.035 4.035 0 0 1-4.034 4.036" fill="#d9e0e7"/><path d="M115.429 103.614a2.51 2.51 0 1 0-2.51 2.51 2.51 2.51 0 0 0 2.51-2.51z" stroke="#fff" stroke-width=".85"/><path d="M84.614 34.823c11.304 0 20.524 8.923 21.008 20.113" stroke="#22272d" stroke-width=".85"/><path d="m87.457 31 .631.575-2.838 3.106 3.306 2.603-.529.67L84 34.784z" fill="#22272d"/></g></svg>