<svg height="164" width="196" xmlns="http://www.w3.org/2000/svg"><mask id="a" fill="#fff"><path d="M.282 13.712c0 7.528 6.067 13.63 13.552 13.63s13.55-6.102 13.55-13.63c0-7.527-6.066-13.629-13.55-13.629S.283 6.185.283 13.712" fill-rule="evenodd"/></mask><g fill="none" fill-rule="evenodd"><path d="M173.805 76.637c-7.156 1.583-13.777 4.842-19.677 9.685-18.846 15.468-29.814 22.483-72.819 12.993-33.561-7.405-50.333 15.21-55.986 25.276m148.482-86.174c-7.156 1.583-13.777 4.842-19.677 9.685-18.846 15.468-29.814 22.483-72.819 12.994C47.748 53.69 30.976 76.305 25.323 86.37" stroke="#22272d" stroke-width=".85"/><path d="M95.2 61.067c0-10.423-8.401-18.873-18.765-18.873S57.67 50.644 57.67 61.067c0 10.425 8.402 18.874 18.766 18.874 10.364 0 18.766-8.45 18.766-18.874" fill="#69b0fe"/><path d="M.282 13.712c0 7.528 6.067 13.63 13.552 13.63s13.55-6.102 13.55-13.63c0-7.527-6.066-13.629-13.55-13.629S.283 6.185.283 13.712" fill="#f43939" mask="url(#a)" transform="translate(98 89.599)"/><path d="M52.152 68.898h18.161V50.632H52.152zM77.257 54.93h-6.944v13.968H84.2v-5.844z" stroke="#22272d" stroke-width=".85"/><path d="M62.3 69.167c0 1.632-1.315 2.955-2.937 2.955s-2.938-1.323-2.938-2.955c0-1.632 1.315-2.955 2.938-2.955s2.938 1.323 2.938 2.955" fill="#22272d"/><path d="M62.3 69.167c0 1.632-1.315 2.955-2.937 2.955s-2.938-1.323-2.938-2.955c0-1.632 1.315-2.955 2.938-2.955s2.938 1.323 2.938 2.955z" stroke="#22272d" stroke-width=".85"/><path d="M80.686 69.167a2.947 2.947 0 0 1-2.938 2.955 2.947 2.947 0 0 1-2.938-2.955 2.947 2.947 0 0 1 2.938-2.955 2.947 2.947 0 0 1 2.938 2.955" fill="#22272d"/><path d="M80.686 69.167a2.947 2.947 0 0 1-2.938 2.955 2.947 2.947 0 0 1-2.938-2.955 2.947 2.947 0 0 1 2.938-2.955 2.947 2.947 0 0 1 2.938 2.955zm13.203 39.181h14.06V94.207h-14.06zm19.436-10.814h-5.376v10.815H118.7v-4.524z" stroke="#22272d" stroke-width=".85"/><path d="M101.746 108.557a2.281 2.281 0 0 1-2.275 2.287 2.281 2.281 0 0 1-2.274-2.287 2.281 2.281 0 0 1 2.274-2.288 2.28 2.28 0 0 1 2.275 2.288" fill="#22272d"/><path d="M101.746 108.557a2.281 2.281 0 0 1-2.275 2.287 2.281 2.281 0 0 1-2.274-2.287 2.281 2.281 0 0 1 2.274-2.288 2.28 2.28 0 0 1 2.275 2.288z" stroke="#22272d" stroke-width=".85"/><path d="M115.98 108.557a2.281 2.281 0 0 1-2.275 2.287 2.281 2.281 0 0 1-2.274-2.287 2.28 2.28 0 0 1 2.274-2.288 2.281 2.281 0 0 1 2.275 2.288" fill="#22272d"/><path d="M115.98 108.557a2.281 2.281 0 0 1-2.275 2.287 2.281 2.281 0 0 1-2.274-2.287 2.28 2.28 0 0 1 2.274-2.288 2.281 2.281 0 0 1 2.275 2.288z" stroke="#22272d" stroke-width=".85"/><path d="M28.3 85.762c0 1.632-1.315 2.955-2.937 2.955s-2.938-1.323-2.938-2.955 1.315-2.955 2.938-2.955S28.3 84.13 28.3 85.762" fill="#22272d"/><path d="M28.3 85.762c0 1.632-1.315 2.955-2.937 2.955s-2.938-1.323-2.938-2.955 1.315-2.955 2.938-2.955S28.3 84.13 28.3 85.762z" stroke="#22272d" stroke-width=".85"/><path d="M41.3 108.392c0 1.632-1.315 2.955-2.937 2.955s-2.938-1.323-2.938-2.955 1.315-2.955 2.938-2.955 2.938 1.323 2.938 2.955" fill="#22272d"/><path d="M41.3 108.392c0 1.632-1.315 2.955-2.937 2.955s-2.938-1.323-2.938-2.955 1.315-2.955 2.938-2.955 2.938 1.323 2.938 2.955z" stroke="#22272d" stroke-width=".85"/><path d="M75.3 98.334c0 1.632-1.315 2.955-2.937 2.955s-2.938-1.323-2.938-2.955 1.315-2.955 2.938-2.955 2.938 1.324 2.938 2.955" fill="#22272d"/><path d="M75.3 98.334c0 1.632-1.315 2.955-2.937 2.955s-2.938-1.323-2.938-2.955 1.315-2.955 2.938-2.955 2.938 1.324 2.938 2.955z" stroke="#22272d" stroke-width=".85"/><path d="M119.3 65.144c0 1.632-1.315 2.955-2.937 2.955s-2.938-1.323-2.938-2.955 1.315-2.955 2.938-2.955 2.938 1.323 2.938 2.955" fill="#fff"/><path d="M119.3 65.144c0 1.632-1.315 2.955-2.937 2.955s-2.938-1.323-2.938-2.955 1.315-2.955 2.938-2.955 2.938 1.323 2.938 2.955z" stroke="#22272d" stroke-width=".85"/><path d="M151.8 90.288c0 1.632-1.315 2.955-2.937 2.955s-2.938-1.323-2.938-2.955 1.315-2.955 2.938-2.955 2.938 1.323 2.938 2.955" fill="#fff"/><path d="M151.8 90.288c0 1.632-1.315 2.955-2.937 2.955s-2.938-1.323-2.938-2.955 1.315-2.955 2.938-2.955 2.938 1.323 2.938 2.955z" stroke="#22272d" stroke-width=".85"/><path d="M154.3 50.057c0 1.632-1.315 2.955-2.937 2.955s-2.938-1.323-2.938-2.955 1.315-2.955 2.938-2.955 2.938 1.323 2.938 2.955" fill="#fff"/><path d="M154.3 50.057c0 1.632-1.315 2.955-2.937 2.955s-2.938-1.323-2.938-2.955 1.315-2.955 2.938-2.955 2.938 1.323 2.938 2.955z" stroke="#22272d" stroke-width=".85"/></g></svg>