<svg height="164" width="196" xmlns="http://www.w3.org/2000/svg"><g fill="none" fill-rule="evenodd"><path d="m51.675 110.968-6.347 21.166h111.337l-6.347-21.166z" fill="#fff" stroke="#22272d" stroke-width=".935"/><path d="M150.64 110.537H51.3V58.612c0-1.834 1.48-3.32 3.306-3.32h92.729a3.313 3.313 0 0 1 3.305 3.32z" fill="#21272d"/><path d="M53.5 108.92h93.817V58.603H53.5z" fill="#fff"/><path d="M44.7 135.915h112.59v-3.332H44.7z" fill="#21272d"/><path d="M133.31 93.083c.252-.713.39-1.482.39-2.286 0-3.692-2.91-6.685-6.499-6.685-.154 0-.306.007-.457.018.012-.228.02-.457.02-.688 0-6.871-5.415-12.442-12.095-12.442-5.557 0-10.236 3.857-11.652 9.11-.102-.004-.202-.009-.305-.009-5.364 0-9.712 4.474-9.712 9.992 0 1.041.155 2.046.443 2.99z" fill="#69b0fe" stroke="#69b0fe"/><path d="M81 92.688c.972-.038 11.687-.002 11.687-.002l5.913-.006c-3.335 0-5.914-2.7-5.914-6.038V48.97c0-3.298-2.616-5.971-5.843-5.971S81 45.673 81 48.97v38.68z" fill="#dae1e8" stroke="#21272d" stroke-linecap="round" stroke-linejoin="round" stroke-width="1.1"/><path d="M70 43c.972.037 11.687.001 11.687.001l5.913.007c-3.335 0-5.914 2.731-5.914 6.107v67.345c0 3.336-2.616 6.04-5.843 6.04S70 119.796 70 116.46V48.095z" fill="#fff" stroke="#22272d" stroke-width=".935"/><path d="M76.9 122.854a5.984 5.984 0 0 1-4.224-1.712 6.084 6.084 0 0 1-1.68-4.226V35.004c0-3.316-2.67-6.004-5.964-6.004-3.295 0-5.965 2.688-5.965 6.004v8.824H34v70.688c0 4.601 3.703 8.33 8.273 8.328 4.775-.002 34.627.01 34.627.01" fill="#dae1e8" stroke="#21272d" stroke-width="1.1"/><path d="M23 37.34c0-4.602 3.703-8.332 8.273-8.33C43.747 29.016 65.9 29 65.9 29c-3.404 0-6.036 2.717-6.036 6.074v75.634H23z" fill="#fff" stroke="#22272d" stroke-width=".935"/><path d="M63.4 97.938H30.377c-2.417 0-4.377-2.225-4.377-4.97C26 90.225 27.96 88 30.377 88h19.625c2.417 0 4.377 2.224 4.377 4.969 0 2.744-1.96 4.969-4.377 4.969" fill="#f43939"/><path d="M53.453 50.229H27.575c-.318 0-.575-.275-.575-.615s.257-.614.575-.614h25.878c.318 0 .575.275.575.614s-.257.615-.575.615m0 8H27.575c-.318 0-.575-.275-.575-.615s.257-.614.575-.614h25.878c.318 0 .575.275.575.614s-.257.615-.575.615m0 8H27.575c-.318 0-.575-.275-.575-.615s.257-.614.575-.614h25.878c.318 0 .575.275.575.614s-.257.615-.575.615m0 9H27.575c-.318 0-.575-.275-.575-.615s.257-.614.575-.614h25.878c.318 0 .575.275.575.614s-.257.615-.575.615" fill="#22272d"/></g></svg>