<svg height="164" width="196" xmlns="http://www.w3.org/2000/svg"><mask id="a" fill="#fff"><path d="M.236 15.412c0 8.261 6.697 14.958 14.957 14.958 8.261 0 14.958-6.697 14.958-14.958 0-8.26-6.697-14.957-14.957-14.957C6.933.455.236 7.152.236 15.412" fill-rule="evenodd"/></mask><mask id="b" fill="#fff"><path d="M.211 6.154a6 6 0 1 0 12 0 6 6 0 0 0-12 0" fill-rule="evenodd"/></mask><g fill="none" fill-rule="evenodd"><path d="M112.286 139.153H61.163a3.646 3.646 0 0 1-3.646-3.645V28.985a3.646 3.646 0 0 1 3.646-3.646h51.123a3.646 3.646 0 0 1 3.646 3.646v106.523a3.646 3.646 0 0 1-3.646 3.645" fill="#22272d"/><path d="M60.362 128.873h52.724V35.619H60.363zm17.031-98.875a.947.947 0 0 0 0 1.892.947.947 0 0 0 0-1.892m0 3.103a2.16 2.16 0 0 1-2.157-2.157 2.16 2.16 0 0 1 2.157-2.157 2.16 2.16 0 0 1 2.157 2.157 2.16 2.16 0 0 1-2.157 2.157m19.393-1.551H81.582a.605.605 0 1 1 0-1.211h15.204a.605.605 0 1 1 0 1.21" fill="#fff"/><path d="M.236 15.412c0 8.261 6.697 14.958 14.957 14.958 8.261 0 14.958-6.697 14.958-14.958 0-8.26-6.697-14.957-14.957-14.957C6.933.455.236 7.152.236 15.412" fill="#f43939" mask="url(#a)" transform="translate(107.5 31.935)"/><path d="M122.693 38.248a3.397 3.397 0 0 0-3.393 3.392c0 1.871 1.522 3.393 3.393 3.393s3.393-1.522 3.393-3.393a3.397 3.397 0 0 0-3.393-3.392m0 7.5c-2.264 0-4.107-1.843-4.107-4.108s1.843-4.107 4.107-4.107 4.107 1.843 4.107 4.107-1.842 4.107-4.107 4.107m-7.609 9.263h15.219c-.199-4.026-3.536-7.24-7.61-7.24s-7.41 3.214-7.61 7.24zm15.99.76h-16.761v-.38c0-4.62 3.76-8.38 8.38-8.38 4.622 0 8.381 3.76 8.381 8.38z" fill="#fff"/><path d="M69.451 60.377h28.66a3.1 3.1 0 0 0 3.099-3.1V46.191l5.501-4.852h-37.26a3.1 3.1 0 0 0-3.1 3.1v12.838a3.1 3.1 0 0 0 3.1 3.1" fill="#69b0fe"/><path d="M89.611 103.627H50.452a3.1 3.1 0 0 1-3.1-3.1v-5.586l-5.5-4.851h47.76a3.1 3.1 0 0 1 3.1 3.1v7.337a3.1 3.1 0 0 1-3.1 3.1m-.001-21.5H50.452a3.1 3.1 0 0 1-3.1-3.1v-5.586l-5.5-4.851h47.76a3.1 3.1 0 0 1 3.1 3.1v7.337a3.1 3.1 0 0 1-3.1 3.1m-.001 43H50.452a3.1 3.1 0 0 1-3.1-3.1v-5.586l-5.5-4.851h47.76a3.1 3.1 0 0 1 3.1 3.1v7.337a3.1 3.1 0 0 1-3.1 3.1" fill="#d9e0e7"/><path d="M150.511 47.09c0 15.49-12.558 28.05-28.05 28.05m46.75-28.05c0 25.819-20.93 46.75-46.75 46.75m-84.25-1.75a6 6 0 1 0-12 0 6 6 0 0 0 12 0z" stroke="#22272d" stroke-width=".85"/><path d="M38.211 70.59a6 6 0 1 0-12 0 6 6 0 0 0 12 0" fill="#69b0fe"/><path d="M.211 6.154a6 6 0 1 0 12 0 6 6 0 0 0-12 0" fill="#f43939" mask="url(#b)" transform="translate(26 107.435)"/></g></svg>